<svg id="visual" viewBox="0 0 540 960" width="540" height="960" xmlns="http://www.w3.org/2000/svg" xmlns:xlink="http://www.w3.org/1999/xlink" version="1.1"><rect x="0" y="0" width="540" height="960" fill="#001220"></rect><path d="M0 556L12.8 552.2C25.7 548.3 51.3 540.7 77 530C102.7 519.3 128.3 505.7 154 502.7C179.7 499.7 205.3 507.3 231.2 533.3C257 559.3 283 603.7 308.8 621.5C334.7 639.3 360.3 630.7 386 611.7C411.7 592.7 437.3 563.3 463 547.7C488.7 532 514.3 530 527.2 529L540 528L540 961L527.2 961C514.3 961 488.7 961 463 961C437.3 961 411.7 961 386 961C360.3 961 334.7 961 308.8 961C283 961 257 961 231.2 961C205.3 961 179.7 961 154 961C128.3 961 102.7 961 77 961C51.3 961 25.7 961 12.8 961L0 961Z" fill="#69fafa"></path><path d="M0 683L12.8 678.2C25.7 673.3 51.3 663.7 77 653.2C102.7 642.7 128.3 631.3 154 635.7C179.7 640 205.3 660 231.2 675.5C257 691 283 702 308.8 697.7C334.7 693.3 360.3 673.7 386 666.3C411.7 659 437.3 664 463 675.5C488.7 687 514.3 705 527.2 714L540 723L540 961L527.2 961C514.3 961 488.7 961 463 961C437.3 961 411.7 961 386 961C360.3 961 334.7 961 308.8 961C283 961 257 961 231.2 961C205.3 961 179.7 961 154 961C128.3 961 102.7 961 77 961C51.3 961 25.7 961 12.8 961L0 961Z" fill="#00d5ff"></path><path d="M0 663L12.8 672.7C25.7 682.3 51.3 701.7 77 703.8C102.7 706 128.3 691 154 694.7C179.7 698.3 205.3 720.7 231.2 721.2C257 721.7 283 700.3 308.8 694.7C334.7 689 360.3 699 386 703.5C411.7 708 437.3 707 463 719C488.7 731 514.3 756 527.2 768.5L540 781L540 961L527.2 961C514.3 961 488.7 961 463 961C437.3 961 411.7 961 386 961C360.3 961 334.7 961 308.8 961C283 961 257 961 231.2 961C205.3 961 179.7 961 154 961C128.3 961 102.7 961 77 961C51.3 961 25.7 961 12.8 961L0 961Z" fill="#00aafb"></path><path d="M0 836L12.8 838.2C25.7 840.3 51.3 844.7 77 840.2C102.7 835.7 128.3 822.3 154 811.2C179.7 800 205.3 791 231.2 789.8C257 788.7 283 795.3 308.8 798.3C334.7 801.3 360.3 800.7 386 804.7C411.7 808.7 437.3 817.3 463 816.2C488.7 815 514.3 804 527.2 798.5L540 793L540 961L527.2 961C514.3 961 488.7 961 463 961C437.3 961 411.7 961 386 961C360.3 961 334.7 961 308.8 961C283 961 257 961 231.2 961C205.3 961 179.7 961 154 961C128.3 961 102.7 961 77 961C51.3 961 25.7 961 12.8 961L0 961Z" fill="#007be8"></path><path d="M0 897L12.8 889.2C25.7 881.3 51.3 865.7 77 867.5C102.7 869.3 128.3 888.7 154 895.2C179.7 901.7 205.3 895.3 231.2 893.2C257 891 283 893 308.8 894C334.7 895 360.3 895 386 892.7C411.7 890.3 437.3 885.7 463 878.3C488.7 871 514.3 861 527.2 856L540 851L540 961L527.2 961C514.3 961 488.7 961 463 961C437.3 961 411.7 961 386 961C360.3 961 334.7 961 308.8 961C283 961 257 961 231.2 961C205.3 961 179.7 961 154 961C128.3 961 102.7 961 77 961C51.3 961 25.7 961 12.8 961L0 961Z" fill="#2446c7"></path></svg>