<svg id="visual" viewBox="0 0 960 540" width="960" height="540" xmlns="http://www.w3.org/2000/svg" xmlns:xlink="http://www.w3.org/1999/xlink" version="1.1"><rect x="0" y="0" width="960" height="540" fill="#001220"></rect><path d="M558 540L554.2 527.2C550.3 514.3 542.7 488.7 532 463C521.3 437.3 507.7 411.7 504.7 386C501.7 360.3 509.3 334.7 535.3 308.8C561.3 283 605.7 257 623.5 231.2C641.3 205.3 632.7 179.7 613.7 154C594.7 128.3 565.3 102.7 549.7 77C534 51.3 532 25.7 531 12.8L530 0L960 0L960 12.8C960 25.7 960 51.3 960 77C960 102.7 960 128.3 960 154C960 179.7 960 205.3 960 231.2C960 257 960 283 960 308.8C960 334.7 960 360.3 960 386C960 411.7 960 437.3 960 463C960 488.7 960 514.3 960 527.2L960 540Z" fill="#69fafa"></path><path d="M685 540L680.2 527.2C675.3 514.3 665.7 488.7 655.2 463C644.7 437.3 633.3 411.7 637.7 386C642 360.3 662 334.7 677.5 308.8C693 283 704 257 699.7 231.2C695.3 205.3 675.7 179.7 668.3 154C661 128.3 666 102.7 677.5 77C689 51.3 707 25.7 716 12.8L725 0L960 0L960 12.8C960 25.7 960 51.3 960 77C960 102.7 960 128.3 960 154C960 179.7 960 205.3 960 231.2C960 257 960 283 960 308.8C960 334.7 960 360.3 960 386C960 411.7 960 437.3 960 463C960 488.7 960 514.3 960 527.2L960 540Z" fill="#00d5ff"></path><path d="M665 540L674.7 527.2C684.3 514.3 703.7 488.7 705.8 463C708 437.3 693 411.7 696.7 386C700.3 360.3 722.7 334.7 723.2 308.8C723.7 283 702.3 257 696.7 231.2C691 205.3 701 179.7 705.5 154C710 128.3 709 102.7 721 77C733 51.3 758 25.7 770.5 12.8L783 0L960 0L960 12.8C960 25.7 960 51.3 960 77C960 102.7 960 128.3 960 154C960 179.7 960 205.3 960 231.2C960 257 960 283 960 308.8C960 334.7 960 360.3 960 386C960 411.7 960 437.3 960 463C960 488.7 960 514.3 960 527.2L960 540Z" fill="#00aafb"></path><path d="M838 540L840.2 527.2C842.3 514.3 846.7 488.7 842.2 463C837.7 437.3 824.3 411.7 813.2 386C802 360.3 793 334.7 791.8 308.8C790.7 283 797.3 257 800.3 231.2C803.3 205.3 802.7 179.7 806.7 154C810.7 128.3 819.3 102.7 818.2 77C817 51.3 806 25.7 800.5 12.8L795 0L960 0L960 12.8C960 25.7 960 51.3 960 77C960 102.7 960 128.3 960 154C960 179.7 960 205.3 960 231.2C960 257 960 283 960 308.8C960 334.7 960 360.3 960 386C960 411.7 960 437.3 960 463C960 488.7 960 514.3 960 527.2L960 540Z" fill="#007be8"></path><path d="M899 540L891.2 527.2C883.3 514.3 867.7 488.7 869.5 463C871.3 437.3 890.7 411.7 897.2 386C903.7 360.3 897.3 334.7 895.2 308.8C893 283 895 257 896 231.2C897 205.3 897 179.7 894.7 154C892.3 128.3 887.7 102.7 880.3 77C873 51.3 863 25.7 858 12.8L853 0L960 0L960 12.8C960 25.7 960 51.3 960 77C960 102.7 960 128.3 960 154C960 179.7 960 205.3 960 231.2C960 257 960 283 960 308.8C960 334.7 960 360.3 960 386C960 411.7 960 437.3 960 463C960 488.7 960 514.3 960 527.2L960 540Z" fill="#2446c7"></path></svg>